<svg xmlns="http://www.w3.org/2000/svg" width="36" height="36" viewBox="0 0 36 36">
    <g opacity="0.996" transform="translate(-2687 16196)">
        <circle cx="18" cy="18" r="18" fill="#83b949" transform="translate(2687 -16196)"/>
        <g>
            <g>
                <path fill="#fff" d="M19.738 39.368a1.5 1.5 0 0 0-.26-.019H4.663l.323-.15a3 3 0 0 0 .849-.6l4.155-4.152a1.554 1.554 0 0 0 .218-1.99 1.5 1.5 0 0 0-2.254-.2L.44 39.77a1.5 1.5 0 0 0 0 2.124L7.953 49.4a1.5 1.5 0 0 0 2.254-.15 1.554 1.554 0 0 0-.218-1.99L5.842 43.1a3.005 3.005 0 0 0-.751-.548l-.451-.2h14.755a1.555 1.555 0 0 0 1.585-1.261 1.5 1.5 0 0 0-1.242-1.723z" transform="rotate(-90 -6751.921 -9416.079) translate(0 31.842) translate(0 -31.842)"/>
            </g>
        </g>
    </g>
</svg>
